<svg xmlns="http://www.w3.org/2000/svg" width="42" height="44" viewBox="0 0 42 44">
  <defs>
    <style>
      .cls-1 {
        fill: #3c3c3c;
        fill-rule: evenodd;
      }
    </style>
  </defs>
  <path id="Forma_1" data-name="Forma 1" class="cls-1" d="M1053.8,905.874a11.521,11.521,0,0,0,2.51-7.2v-1.165A11.465,11.465,0,0,0,1044.92,886h-11.53A11.465,11.465,0,0,0,1022,897.511v20.977A11.464,11.464,0,0,0,1033.39,930h19.22A11.464,11.464,0,0,0,1064,918.488v-1.166A11.487,11.487,0,0,0,1053.8,905.874Zm-27.47-8.363a7.107,7.107,0,0,1,7.06-7.134h11.53a7.107,7.107,0,0,1,7.06,7.134v1.165a7.108,7.108,0,0,1-7.06,7.135h-18.59v-8.3Zm26.28,28.111h-19.22a7.108,7.108,0,0,1-7.06-7.134v-8.3h26.28a7.108,7.108,0,0,1,7.06,7.134v1.166A7.108,7.108,0,0,1,1052.61,925.622Z" transform="translate(-1022 -886)"/>
</svg>
