<svg xmlns="http://www.w3.org/2000/svg" width="38" height="53" viewBox="0 0 38 53">
  <defs>
    <style>
      .cls-1 {
        fill: #3c3c3c;
        fill-rule: evenodd;
      }
    </style>
  </defs>
  <path id="Forma_1" data-name="Forma 1" class="cls-1" d="M323.076,1128.26a18.8,18.8,0,0,0-26.7.62,19.2,19.2,0,0,0,4.917,30.34,4.538,4.538,0,0,1,2.412,4.07v4.78a5.051,5.051,0,0,0,2.758,4.83,3.568,3.568,0,0,0,7.074,0,4.518,4.518,0,0,0,2.759-4.17v-5.44a4.572,4.572,0,0,1,2.426-4.08A19.276,19.276,0,0,0,323.076,1128.26Zm-8.483,35.03v0.92H305.4v-0.92a6.646,6.646,0,0,0-.081-1.03h9.351A6.646,6.646,0,0,0,314.593,1163.29Zm0,4.59a0.11,0.11,0,0,0-.056-0.01h-9.075a0.115,0.115,0,0,0-.057.01v-1.95h9.188v1.95Zm-4.594,6.4a1.871,1.871,0,0,1-1.665-1.03h3.33A1.87,1.87,0,0,1,310,1174.28Zm1.815-2.74h-3.63a2.647,2.647,0,0,1-2.545-1.95h8.821A2.788,2.788,0,0,1,311.814,1171.54Zm6.125-13.86a6.185,6.185,0,0,0-2.737,2.87H304.8a6.153,6.153,0,0,0-2.728-2.86,17.479,17.479,0,0,1-4.474-27.62,17.1,17.1,0,0,1,11.467-5.33c0.316-.01.63-0.02,0.943-0.02a17.058,17.058,0,0,1,11.9,4.79A17.541,17.541,0,0,1,317.939,1157.68Zm2.95-18.2h-0.395a11,11,0,0,0-1.187-2.9l0.278-.27a1.784,1.784,0,0,0,.513-1.26,1.761,1.761,0,0,0-.513-1.25l-1.284-1.3a1.752,1.752,0,0,0-2.486,0l-0.278.28a10.659,10.659,0,0,0-2.872-1.2v-0.39a1.772,1.772,0,0,0-1.758-1.78h-1.815a1.772,1.772,0,0,0-1.758,1.78v0.39a10.665,10.665,0,0,0-2.873,1.2l-0.277-.28a1.753,1.753,0,0,0-2.487,0l-1.283,1.3a1.762,1.762,0,0,0-.514,1.25,1.785,1.785,0,0,0,.514,1.26l0.278,0.27a10.971,10.971,0,0,0-1.187,2.9H299.11a1.773,1.773,0,0,0-1.759,1.78v1.83a1.764,1.764,0,0,0,1.759,1.77h0.395a10.7,10.7,0,0,0,1.187,2.9l-0.278.28a1.785,1.785,0,0,0-.514,1.26,1.762,1.762,0,0,0,.514,1.25l1.283,1.3a1.771,1.771,0,0,0,2.487,0l0.277-.28a10.639,10.639,0,0,0,2.873,1.19v0.4a1.772,1.772,0,0,0,1.758,1.78h1.815a1.772,1.772,0,0,0,1.758-1.78v-0.4a10.633,10.633,0,0,0,2.872-1.19l0.278,0.28a1.77,1.77,0,0,0,2.486,0l1.283-1.3a1.758,1.758,0,0,0,.514-1.25,1.781,1.781,0,0,0-.514-1.26l-0.277-.28a10.735,10.735,0,0,0,1.187-2.9h0.395a1.763,1.763,0,0,0,1.758-1.77v-1.83A1.772,1.772,0,0,0,320.889,1139.48Zm0.057,3.61a0.063,0.063,0,0,1-.057.06h-1.08a0.847,0.847,0,0,0-.837.7,9.112,9.112,0,0,1-1.451,3.54,0.874,0.874,0,0,0,.1,1.1l0.761,0.77a0.047,0.047,0,0,1,.016.04,0.062,0.062,0,0,1-.016.04l-1.283,1.29a0.061,0.061,0,0,1-.08,0l-0.762-.77a0.854,0.854,0,0,0-1.084-.1,8.98,8.98,0,0,1-3.512,1.47,0.852,0.852,0,0,0-.7.84v1.09a0.062,0.062,0,0,1-.056.06h-1.815a0.063,0.063,0,0,1-.057-0.06v-1.09a0.851,0.851,0,0,0-.7-0.84,8.98,8.98,0,0,1-3.512-1.47,0.852,0.852,0,0,0-.482-0.15,0.872,0.872,0,0,0-.6.25l-0.761.77a0.062,0.062,0,0,1-.081,0l-1.283-1.29a0.066,0.066,0,0,1-.015-0.04,0.049,0.049,0,0,1,.015-0.04l0.762-.77a0.873,0.873,0,0,0,.1-1.1,9.128,9.128,0,0,1-1.451-3.54,0.847,0.847,0,0,0-.836-0.7h-1.081a0.062,0.062,0,0,1-.056-0.06v-1.83a0.062,0.062,0,0,1,.056-0.06h1.081a0.847,0.847,0,0,0,.836-0.7,9.172,9.172,0,0,1,1.451-3.55,0.858,0.858,0,0,0-.1-1.09l-0.762-.77a0.061,0.061,0,0,1,0-.08l1.283-1.29a0.048,0.048,0,0,1,.081,0l0.761,0.76a0.83,0.83,0,0,0,1.084.1,9.113,9.113,0,0,1,3.512-1.46,0.862,0.862,0,0,0,.7-0.85v-1.08a0.063,0.063,0,0,1,.057-0.06h1.815a0.062,0.062,0,0,1,.056.06v1.08a0.863,0.863,0,0,0,.7.85,9.113,9.113,0,0,1,3.512,1.46,0.83,0.83,0,0,0,1.084-.1l0.762-.76a0.047,0.047,0,0,1,.08,0l1.283,1.29a0.058,0.058,0,0,1,0,.08l-0.761.77a0.859,0.859,0,0,0-.1,1.09,9.156,9.156,0,0,1,1.451,3.55,0.847,0.847,0,0,0,.837.7h1.08a0.063,0.063,0,0,1,.057.06v1.83ZM310,1134.91a7.265,7.265,0,1,0,7.2,7.26A7.242,7.242,0,0,0,310,1134.91Zm0,12.82a5.555,5.555,0,1,1,5.5-5.56A5.534,5.534,0,0,1,310,1147.73Zm0-9.16a3.605,3.605,0,1,0,3.573,3.6A3.594,3.594,0,0,0,310,1138.57Zm0,5.49a1.89,1.89,0,1,1,1.872-1.89A1.878,1.878,0,0,1,310,1144.06Z" transform="translate(-291 -1123)"/>
</svg>
