<svg xmlns="http://www.w3.org/2000/svg" width="66" height="61" viewBox="0 0 66 61">
  <defs>
    <style>
      .cls-1 {
        fill: #333945;
        fill-rule: evenodd;
      }
    </style>
  </defs>
  <path id="Forma_1" data-name="Forma 1" class="cls-1" d="M822.613,317.142H808.265a9.04,9.04,0,0,0-8.42-5.85H797.5a6.631,6.631,0,0,0-12.988,0h-2.344a9.04,9.04,0,0,0-8.42,5.85H759.4a1.407,1.407,0,0,0-1.4,1.414v47.029A1.407,1.407,0,0,0,759.4,367h63.2a1.406,1.406,0,0,0,1.4-1.415V318.556A1.386,1.386,0,0,0,822.613,317.142Zm-46.277,1.115a6.227,6.227,0,0,1,5.833-4.135h3.6a1.407,1.407,0,0,0,1.4-1.415,3.84,3.84,0,1,1,7.68,0,1.407,1.407,0,0,0,1.4,1.415h3.6a6.227,6.227,0,0,1,5.833,4.135l1.105,3.1H775.218ZM821.2,364.17H760.816v-44.2h11.923l-0.836,2.313a1.438,1.438,0,0,0,1.321,1.9H808.79a1.392,1.392,0,0,0,1.321-1.9l-0.836-2.313H821.2v44.2h0Zm-44.4-23.807a6.788,6.788,0,1,0-6.723-6.788A6.765,6.765,0,0,0,776.794,340.363Zm0-10.747a3.959,3.959,0,1,1-3.921,3.959A3.944,3.944,0,0,1,776.794,329.616Zm0,11.673a14.6,14.6,0,0,0-14.51,14.651,1.407,1.407,0,0,0,1.4,1.415h26.2a1.408,1.408,0,0,0,1.4-1.415A14.583,14.583,0,0,0,776.794,341.289Zm-11.627,13.236a11.685,11.685,0,0,1,23.226,0H765.167Zm28.71-19.059a1.407,1.407,0,0,0,1.4,1.415h21.757a1.415,1.415,0,0,0,.014-2.83H795.278A1.407,1.407,0,0,0,793.877,335.466Zm23.172,11.8H795.278a1.415,1.415,0,0,0,0,2.829h21.757A1.415,1.415,0,0,0,817.049,347.261Z" transform="translate(-758 -306)"/>
</svg>
