<svg xmlns="http://www.w3.org/2000/svg" xmlns:xlink="http://www.w3.org/1999/xlink" version="1.1" x="0px" y="0px" viewBox="0 0 100 125" enable-background="new 0 0 100 100" xml:space="preserve"><g><path d="M43.133,69.489l10.616-21.246l2.085,2.085l11.417-8.2l-2.333-3.249l-8.658,6.218l-14.57-14.57l6.152-8.589l-3.252-2.329   l-8.127,11.348l2.09,2.09L17.301,43.656l-0.06,1.166c-0.492,9.633-1.439,20.346-6.471,25.541L9.4,71.777l5.638,5.638l1.415-1.419   c4.979-4.998,15.335-5.925,25.516-6.446L43.133,69.489z M21.098,68.679l9.403-9.403c0.772,0.003,1.545-0.289,2.135-0.878   c1.171-1.171,1.17-3.071,0-4.243c-1.172-1.17-3.071-1.171-4.243,0.001c-0.662,0.662-0.936,1.557-0.85,2.422l-9.713,9.713   c2.273-5.846,2.964-13.183,3.345-20.098L41.536,36.03l9.231,9.231l-10.17,20.354C33.652,65.997,26.696,66.646,21.098,68.679z"/><rect x="20.662" y="77.338" width="64" height="8"/></g></svg>
