<svg xmlns="http://www.w3.org/2000/svg" width="50.938" height="49" viewBox="0 0 50.938 49">
  <defs>
    <style>
      .cls-1 {
        fill: #fff;
        fill-rule: evenodd;
      }
    </style>
  </defs>
  <path id="Forma_1" data-name="Forma 1" class="cls-1" d="M314.637,922.414l-3.519-2.6,1.083-5.555,0.027-.039,1.625,1.2v0l0.966,0.715h0l2.206,1.633h0l0.966,0.717v0l1.625,1.2-0.027.037Zm20.951-40.085-4.673,6.377,7.392,5.47,4.672-6.377ZM328,902.792l7-9.563-2.2-1.634-4.8,6.55-2.284,3.114-10.186,13.907,2.209,1.634,7.981-10.893Zm-17.138,18.326-0.729,3.736,3.336-1.807ZM328,904.824l-2.284,3.112-7.013,9.576,1.627,1.205,5.386-7.354v16.359H294.3V886.153h0.665v1.408a1.14,1.14,0,1,0,2.28,0v-1.408h1.691v1.408a1.141,1.141,0,1,0,2.281,0v-1.408h1.691v1.408a1.141,1.141,0,1,0,2.281,0v-1.408h1.692v1.408a1.14,1.14,0,1,0,2.28,0v-1.408h1.692v1.408a1.14,1.14,0,1,0,2.28,0v-1.408h1.692v1.408a1.14,1.14,0,1,0,2.28,0v-1.408H318.8v1.408a1.14,1.14,0,1,0,2.279,0v-1.408h1.691v1.408a1.141,1.141,0,1,0,2.281,0v-1.408h0.665v9.652L312.937,913.25l1.626,1.2,11.152-15.223,2.28-3.114,3.835-5.231-1.629-1.206L328,892.689v-8.828H325.05v-1.73a1.141,1.141,0,1,0-2.281,0v1.73h-1.691v-1.73a1.14,1.14,0,1,0-2.279,0v1.73h-1.693v-1.73a1.14,1.14,0,1,0-2.28,0v1.73h-1.692v-1.73a1.14,1.14,0,1,0-2.28,0v1.73h-1.692v-1.73a1.14,1.14,0,1,0-2.28,0v1.73H305.19v-1.73a1.141,1.141,0,1,0-2.281,0v1.73h-1.691v-1.73a1.141,1.141,0,1,0-2.281,0v1.73h-1.691v-1.73a1.14,1.14,0,1,0-2.28,0v1.73h-2.945v46.153H328V908.247l9.594-13.1-1.625-1.2Zm-6.333-13.333H297.842v2.8h23.824v-2.8Zm-23.824,8.4h23.824v-2.8H297.842v2.8Zm0,5.605h16.474v-2.8H297.842v2.8Z" transform="translate(-292.031 -881)"/>
</svg>
