<?xml version="1.0" standalone="no"?>
<!DOCTYPE svg PUBLIC "-//W3C//DTD SVG 20010904//EN"
 "http://www.w3.org/TR/2001/REC-SVG-20010904/DTD/svg10.dtd">
<svg version="1.0" xmlns="http://www.w3.org/2000/svg"
 width="600.000000pt" height="753.000000pt" viewBox="0 0 600.000000 753.000000"
 preserveAspectRatio="xMidYMid meet">
<metadata>
Created by potrace 1.13, written by Peter Selinger 2001-2015
</metadata>
<g transform="translate(0.000000,753.000000) scale(0.100000,-0.100000)"
fill="#000000" stroke="none">
<path d="M2935 7501 c-92 -42 -129 -113 -144 -275 -7 -66 -17 -131 -24 -145
-29 -58 22 -56 -1329 -58 l-1238 -3 -48 -24 c-60 -31 -127 -102 -142 -153 -8
-28 -10 -603 -8 -2118 3 -2393 -10 -2119 112 -2212 l69 -53 450 0 c498 0 486
2 528 -67 19 -30 19 -34 4 -70 -9 -21 -27 -78 -41 -126 -14 -49 -36 -105 -49
-126 -14 -20 -39 -94 -58 -166 -19 -72 -50 -161 -69 -200 -20 -38 -45 -113
-57 -165 -12 -52 -40 -133 -61 -180 -22 -47 -50 -132 -64 -189 -14 -59 -40
-133 -60 -172 -22 -42 -46 -112 -62 -181 -17 -75 -39 -137 -64 -183 -23 -43
-44 -101 -54 -150 -22 -108 -43 -168 -83 -241 -27 -50 -34 -74 -36 -129 -2
-62 0 -69 24 -87 24 -18 43 -20 165 -22 127 -1 144 1 192 23 61 27 61 27 102
184 16 60 45 139 64 177 20 38 43 102 51 142 21 102 42 164 76 225 16 28 42
107 58 174 17 68 47 157 66 198 20 42 45 114 56 161 11 47 40 135 64 195 24
61 58 160 75 220 18 61 51 160 75 220 24 61 55 154 69 208 57 219 118 308 218
320 29 4 235 7 458 7 302 -1 421 -4 468 -14 35 -8 64 -15 65 -17 1 -2 10 -14
20 -25 17 -20 18 -81 17 -1126 l0 -1104 30 -42 c16 -23 40 -44 52 -47 13 -3
79 -4 148 -3 l124 3 33 43 33 44 0 1099 c0 662 3 1106 9 1117 36 67 82 72 614
72 l450 0 64 -32 c75 -37 85 -52 113 -172 11 -47 38 -132 61 -188 22 -57 58
-161 79 -233 21 -71 54 -168 73 -215 20 -47 47 -130 61 -186 14 -56 42 -135
61 -176 20 -41 49 -129 65 -195 17 -69 45 -151 65 -190 20 -40 45 -115 61
-183 17 -71 42 -144 65 -190 23 -45 50 -124 68 -198 16 -67 38 -134 49 -150
11 -15 26 -43 35 -63 8 -20 30 -47 48 -60 32 -22 43 -24 164 -24 140 0 168 5
203 35 l23 19 -26 118 c-17 76 -40 146 -65 198 -24 49 -50 125 -66 195 -18 76
-40 139 -64 185 -25 46 -47 109 -64 185 -16 69 -38 135 -57 168 -17 30 -44
107 -60 171 -17 64 -48 154 -69 201 -21 47 -48 127 -60 178 -12 54 -36 125
-59 170 -22 43 -49 118 -62 172 -25 110 -43 161 -76 211 -13 19 -32 61 -43 92
-18 51 -19 60 -6 85 8 15 24 36 36 47 21 19 40 20 474 25 l452 5 65 50 c37 30
72 67 84 90 20 40 20 63 23 2125 2 1908 1 2089 -14 2128 -20 52 -73 106 -137
138 l-47 24 -1238 3 c-1369 2 -1301 -1 -1329 65 -8 18 -19 86 -24 150 -8 91
-16 126 -34 157 -30 52 -71 90 -117 109 -48 21 -74 20 -123 -3z m2570 -914
c45 -11 52 -16 73 -58 l23 -46 -1 -1743 c0 -1739 0 -1743 -21 -1776 -14 -23
-33 -38 -62 -46 -62 -19 -4972 -19 -5034 0 -34 10 -47 21 -63 52 -19 38 -20
62 -20 1775 l-1 1736 24 47 c22 44 27 48 78 58 78 17 4933 17 5004 1z"/>
</g>
</svg>
