<?xml version="1.0" standalone="no"?>
<!DOCTYPE svg PUBLIC "-//W3C//DTD SVG 20010904//EN"
 "http://www.w3.org/TR/2001/REC-SVG-20010904/DTD/svg10.dtd">
<svg version="1.0" xmlns="http://www.w3.org/2000/svg"
 width="600.000000pt" height="800.000000pt" viewBox="0 0 600.000000 800.000000"
 preserveAspectRatio="xMidYMid meet">
<metadata>
Created by potrace 1.13, written by Peter Selinger 2001-2015
</metadata>
<g transform="translate(0.000000,800.000000) scale(0.100000,-0.100000)"
fill="#000000" stroke="none">
<path d="M1520 7979 c-111 -17 -167 -32 -243 -65 -43 -19 -83 -34 -90 -34 -26
0 -135 -59 -185 -101 -30 -24 -86 -64 -125 -89 -53 -34 -78 -58 -100 -95 -16
-27 -50 -73 -76 -101 -81 -88 -176 -309 -214 -494 -53 -257 -34 -467 57 -655
24 -49 59 -121 77 -160 25 -54 55 -93 130 -170 98 -100 159 -193 159 -241 0
-26 -37 -58 -109 -94 -38 -19 -160 -114 -261 -204 -62 -54 -209 -234 -250
-305 -25 -42 -57 -93 -73 -113 -15 -19 -49 -99 -77 -177 -27 -77 -56 -151 -64
-164 -8 -12 -23 -74 -33 -137 -16 -104 -18 -193 -18 -940 l0 -825 27 -55 c40
-81 155 -218 229 -272 128 -95 135 -102 153 -166 15 -54 16 -149 16 -958 0
-527 4 -923 10 -957 16 -97 49 -155 141 -246 106 -104 177 -141 293 -152 133
-13 1456 -11 1559 2 75 10 97 17 136 45 25 18 69 49 98 68 58 40 87 76 108
136 8 23 26 63 39 88 14 26 30 81 36 122 8 52 10 626 10 1923 -2 1484 1 1851
11 1863 17 20 83 54 107 54 35 0 167 -50 207 -79 86 -61 200 -91 349 -91 113
0 205 14 251 37 37 20 195 142 195 152 0 4 27 37 60 74 68 77 80 97 110 187
12 36 39 92 61 126 21 33 52 99 68 145 32 97 52 137 93 195 16 22 49 101 74
174 25 73 55 153 68 179 13 25 29 82 35 126 10 68 9 89 -5 140 -28 104 -29
100 11 133 20 16 56 35 80 42 52 15 78 3 157 -69 35 -32 89 -66 151 -95 53
-24 113 -58 134 -75 35 -28 297 -159 350 -175 19 -6 36 5 96 61 113 105 110
97 114 313 1 102 5 208 9 237 6 57 68 194 113 252 44 57 54 81 66 164 9 62 9
93 -2 150 -16 88 -23 104 -72 170 -37 50 -93 165 -105 217 -3 14 -7 124 -9
244 l-3 219 -74 69 c-116 108 -107 104 -187 74 -118 -46 -245 -110 -287 -145
-23 -19 -74 -49 -115 -68 -41 -19 -110 -59 -154 -90 -57 -40 -108 -66 -181
-90 l-101 -35 -390 -1 -390 -2 -164 -53 -165 -54 -65 -64 c-37 -35 -76 -71
-88 -79 -47 -33 -83 -129 -117 -312 -15 -84 -6 -148 41 -313 26 -90 31 -98 90
-155 61 -60 62 -61 73 -138 13 -85 6 -119 -36 -192 -26 -45 -91 -110 -147
-147 l-37 -25 -68 18 c-37 9 -130 34 -207 55 -185 49 -343 128 -374 187 -13
25 -12 29 16 64 16 21 45 67 64 103 19 36 55 86 81 111 67 64 98 138 115 273
8 61 25 143 39 182 36 105 41 206 15 271 -11 29 -32 115 -46 190 -32 178 -46
219 -101 283 -25 29 -56 75 -70 102 -30 58 -160 194 -224 233 -25 16 -66 47
-91 69 -44 39 -176 99 -349 158 -122 42 -309 57 -440 37z m348 -386 c142 -46
261 -104 296 -143 17 -18 47 -44 68 -58 24 -15 54 -51 78 -91 21 -36 50 -77
65 -91 41 -38 54 -70 90 -227 32 -136 34 -150 25 -241 -16 -185 -58 -328 -111
-378 -17 -16 -47 -56 -66 -89 -48 -80 -60 -93 -113 -120 -25 -13 -67 -43 -95
-66 -66 -55 -134 -85 -242 -104 -173 -30 -235 -30 -393 0 -150 29 -201 47
-235 85 -11 13 -50 42 -86 66 -37 23 -77 57 -89 76 -13 18 -45 56 -72 84 -34
35 -57 72 -78 125 -106 273 -99 250 -101 355 -1 112 9 158 56 259 18 39 38 88
45 110 20 61 49 101 154 212 108 114 174 162 262 192 32 11 77 27 99 37 141
61 275 63 443 7z m3367 -551 l40 -28 3 -471 3 -471 -32 -31 c-17 -18 -46 -38
-63 -45 -27 -11 -36 -11 -66 4 -37 19 -157 115 -227 183 -50 48 -51 52 -58
332 -7 297 8 339 161 457 156 121 162 123 239 70z m-828 -260 c62 -44 70 -70
75 -245 5 -174 2 -187 -60 -239 -28 -23 -42 -26 -139 -32 -59 -4 -196 -5 -305
-2 -193 5 -197 5 -274 37 -99 41 -127 68 -153 148 -26 81 -26 92 0 172 28 83
45 100 134 138 103 43 167 50 445 48 237 -2 246 -3 277 -25z m-380 -933 c82
-15 113 -48 144 -152 21 -74 22 -83 9 -160 -15 -100 -52 -199 -108 -291 -22
-37 -55 -109 -72 -160 -17 -50 -41 -109 -55 -131 -48 -80 -73 -132 -101 -210
-21 -60 -38 -88 -67 -115 -21 -19 -64 -59 -94 -88 l-55 -54 -91 4 c-90 3 -93
4 -152 45 -38 27 -102 58 -173 82 -65 23 -130 53 -152 71 -59 47 -182 88 -288
96 l-90 7 -49 -46 c-39 -37 -55 -62 -80 -129 -17 -46 -34 -96 -38 -112 -3 -16
-6 -916 -5 -2000 l0 -1971 -35 -60 c-68 -113 -68 -113 -240 -121 -132 -5 -159
-4 -228 14 -90 23 -109 38 -144 105 l-24 49 2 863 c2 862 2 863 -19 897 -12
19 -29 41 -39 50 -19 16 -136 58 -162 58 -17 0 -60 -48 -107 -119 l-29 -45 -2
-845 c-1 -465 -2 -852 -2 -859 -1 -21 -128 -148 -161 -162 -18 -7 -80 -10
-182 -8 l-154 3 -72 44 c-43 26 -80 57 -93 77 l-21 35 -2 1013 -1 1013 -30 49
c-35 56 -139 138 -197 156 -22 6 -58 28 -81 48 -33 30 -46 53 -70 121 l-29 84
-2 620 -3 620 28 150 c15 83 33 189 39 238 16 131 44 211 91 262 22 24 53 70
69 103 33 68 176 232 230 264 19 12 53 38 75 58 22 20 72 54 110 74 39 21 84
51 101 67 36 35 113 55 359 94 170 26 207 26 485 -4 52 -6 172 -15 265 -21
188 -11 248 -24 342 -76 42 -24 101 -44 192 -64 92 -21 158 -43 223 -75 62
-29 133 -54 210 -71 l116 -27 75 36 c43 20 83 46 93 61 9 15 35 73 58 129 23
56 58 125 78 152 20 28 51 82 71 120 19 39 44 78 55 88 29 26 163 77 192 72
14 -2 53 -9 87 -16z"/>
</g>
</svg>
