<?xml version="1.0" standalone="no"?>
<!DOCTYPE svg PUBLIC "-//W3C//DTD SVG 20010904//EN"
 "http://www.w3.org/TR/2001/REC-SVG-20010904/DTD/svg10.dtd">
<svg version="1.0" xmlns="http://www.w3.org/2000/svg"
 width="600.000000pt" height="668.000000pt" viewBox="0 0 600.000000 668.000000"
 preserveAspectRatio="xMidYMid meet">
<metadata>
Created by potrace 1.13, written by Peter Selinger 2001-2015
</metadata>
<g transform="translate(0.000000,668.000000) scale(0.100000,-0.100000)"
fill="#000000" stroke="none">
<path d="M2980 6663 c-43 -17 -134 -97 -310 -274 -159 -160 -201 -209 -228
-263 -21 -41 -30 -71 -25 -79 14 -23 123 -117 136 -117 49 1 116 35 168 86 65
64 83 64 114 -2 16 -34 17 -76 14 -508 -3 -367 -1 -476 9 -494 7 -12 30 -33
50 -47 20 -14 49 -34 64 -46 l26 -21 60 37 c106 65 96 8 102 579 5 459 7 504
23 529 23 36 46 34 80 -8 17 -21 56 -48 102 -70 84 -40 97 -42 116 -19 8 9 32
28 54 42 75 47 80 70 33 152 -37 65 -422 459 -483 495 -45 27 -83 37 -105 28z"/>
<path d="M1015 5811 c-55 -7 -62 -10 -118 -55 -25 -19 -41 -43 -49 -70 -7 -26
-12 -155 -13 -346 l-2 -305 41 -49 c75 -89 84 -98 109 -91 113 34 147 79 147
191 0 71 20 119 53 130 26 8 83 -32 142 -100 28 -32 103 -111 168 -177 64 -65
117 -123 117 -128 0 -4 18 -21 39 -35 22 -15 50 -44 64 -65 13 -20 40 -47 58
-60 19 -13 46 -40 61 -60 19 -26 44 -44 91 -63 62 -26 67 -26 128 -14 84 18
109 47 109 130 0 57 -1 59 -57 118 -32 33 -74 75 -93 94 -19 18 -41 39 -48 46
-7 7 -99 101 -206 209 -106 109 -206 204 -223 212 -44 23 -57 44 -69 110 l-11
59 31 19 c22 13 50 19 94 19 111 0 162 45 162 140 0 53 -3 61 -32 86 -67 55
-81 58 -373 60 -148 1 -292 -1 -320 -5z"/>
<path d="M4407 5806 c-41 -10 -69 -23 -93 -47 -32 -31 -34 -37 -34 -95 0 -56
3 -65 31 -93 34 -34 45 -38 139 -44 36 -2 80 -12 98 -21 30 -15 31 -18 18 -39
-7 -12 -17 -38 -20 -58 -7 -38 -30 -64 -84 -95 -18 -10 -42 -33 -53 -51 -11
-18 -35 -41 -54 -53 -19 -12 -43 -36 -54 -54 -12 -18 -38 -45 -59 -58 -21 -14
-49 -41 -62 -61 -13 -19 -37 -42 -52 -52 -15 -9 -40 -33 -55 -53 -15 -20 -34
-41 -43 -46 -8 -5 -51 -47 -97 -93 l-83 -83 0 -68 c0 -62 3 -71 28 -94 17 -16
48 -29 84 -36 53 -10 62 -9 113 13 45 20 85 55 201 173 79 81 157 158 171 172
15 14 36 36 48 49 11 14 36 39 55 57 19 18 41 40 48 48 117 125 193 196 210
196 39 0 62 -45 62 -124 0 -93 20 -132 86 -167 84 -46 83 -46 159 29 l70 67
-2 330 c-1 188 -6 341 -11 356 -6 15 -35 41 -74 64 l-63 38 -285 3 c-210 2
-300 0 -343 -10z"/>
<path d="M2830 4524 c-107 -10 -177 -27 -220 -53 -25 -16 -76 -41 -114 -57
-42 -17 -77 -39 -89 -56 -12 -16 -42 -42 -67 -58 -25 -16 -56 -47 -67 -67 -12
-21 -36 -51 -53 -68 -37 -34 -55 -67 -81 -142 -10 -29 -29 -68 -42 -85 -15
-20 -29 -58 -36 -99 -14 -85 -15 -1075 0 -1138 5 -24 24 -61 42 -81 18 -21 41
-61 51 -89 10 -28 26 -61 36 -74 16 -20 18 -49 21 -267 3 -276 -3 -313 -54
-355 -60 -49 -132 -94 -206 -130 -40 -20 -92 -51 -114 -71 -23 -19 -58 -39
-78 -46 -21 -6 -59 -29 -86 -50 -26 -22 -73 -53 -103 -68 -30 -16 -68 -42 -85
-60 -16 -17 -47 -40 -67 -51 -21 -11 -54 -35 -75 -53 -21 -19 -59 -50 -85 -68
-122 -85 -209 -170 -244 -237 -19 -36 -49 -85 -66 -108 l-31 -42 -1 -358 c-1
-418 -1 -418 88 -459 28 -13 60 -24 71 -24 24 0 81 34 107 63 49 58 50 61 48
366 -1 263 1 292 20 354 18 57 27 71 63 96 23 16 53 41 67 56 14 15 51 45 83
67 31 21 71 52 87 68 17 17 50 39 73 51 23 12 56 34 72 49 17 16 61 45 99 65
38 20 85 49 104 66 19 17 57 40 86 53 29 13 68 37 87 54 19 16 63 42 98 56 35
14 79 37 98 52 18 14 66 40 106 58 84 39 88 43 116 116 20 52 21 74 21 453 0
474 -1 482 -85 562 l-53 50 -7 85 c-4 47 -5 274 -2 505 5 472 9 507 72 577 19
20 44 56 55 78 12 23 35 49 52 58 18 9 50 34 74 55 23 20 67 46 98 57 123 42
433 45 570 5 33 -10 74 -32 100 -53 24 -20 57 -44 74 -54 17 -9 43 -36 58 -60
15 -23 41 -57 59 -74 25 -25 35 -49 51 -115 17 -77 19 -126 19 -559 0 -533 4
-503 -75 -576 -68 -63 -70 -80 -70 -543 0 -405 0 -406 24 -456 29 -63 44 -76
138 -119 42 -19 79 -40 83 -46 4 -7 49 -31 99 -55 50 -23 98 -50 105 -59 8
-10 47 -33 85 -52 39 -20 85 -48 101 -64 17 -15 57 -41 90 -58 33 -16 69 -40
80 -52 11 -12 36 -31 57 -41 20 -10 57 -37 83 -59 26 -22 70 -56 98 -74 29
-18 73 -53 98 -77 25 -24 57 -52 71 -61 18 -12 34 -40 49 -85 22 -66 23 -78
21 -350 -3 -305 -5 -296 55 -369 48 -59 78 -70 150 -52 55 13 59 16 82 62 l25
50 -3 355 c-3 388 -2 384 -65 470 -18 25 -43 65 -55 89 -13 25 -38 52 -63 68
-23 15 -62 46 -87 69 -25 23 -69 57 -98 74 -28 17 -53 38 -56 45 -3 8 -37 33
-75 55 -38 22 -72 47 -75 55 -3 8 -33 29 -66 46 -33 18 -78 48 -101 67 -22 19
-71 50 -108 68 -37 18 -74 41 -82 50 -8 10 -51 36 -95 57 -88 43 -163 91 -212
135 -41 38 -46 88 -41 378 4 208 6 224 30 285 14 36 42 84 62 106 22 26 40 60
47 90 15 66 15 1042 -1 1139 -7 48 -21 88 -44 125 -19 30 -44 83 -56 118 -15
41 -34 73 -55 90 -18 15 -44 46 -59 69 -14 23 -38 50 -53 60 -16 9 -46 34 -68
54 -22 21 -73 52 -114 69 -41 18 -91 43 -111 56 -20 14 -63 29 -96 35 -63 10
-389 20 -464 13z"/>
<path d="M537 4203 c-27 -3 -47 -14 -71 -40 -18 -20 -40 -42 -47 -49 -30 -29
-108 -106 -116 -115 -19 -20 -96 -96 -120 -119 -14 -14 -38 -38 -52 -53 -14
-16 -50 -53 -79 -84 l-53 -54 6 -57 c8 -71 19 -94 56 -116 16 -10 41 -35 56
-57 14 -21 41 -48 59 -60 18 -11 43 -36 55 -55 12 -20 38 -46 59 -60 20 -14
42 -36 48 -49 6 -14 33 -40 60 -59 26 -19 54 -46 61 -59 19 -35 49 -49 115
-54 82 -6 113 14 154 98 l30 64 -44 43 c-25 23 -54 62 -64 85 -11 23 -30 54
-42 70 -21 26 -21 28 -5 45 16 16 61 17 531 22 l514 5 39 31 c34 28 39 37 44
90 8 68 -2 88 -63 130 l-41 29 -509 1 c-279 0 -511 3 -514 7 -4 4 -2 33 4 64
10 53 17 63 73 114 l61 57 -7 53 c-8 58 -36 98 -87 125 -27 14 -37 14 -111 7z"/>
<path d="M5327 4168 c-28 -28 -35 -43 -41 -91 -7 -53 -5 -61 19 -93 14 -19 39
-44 54 -55 22 -16 32 -35 41 -81 9 -42 10 -62 2 -70 -7 -7 -156 -10 -479 -9
-257 1 -492 -3 -521 -7 -40 -7 -62 -18 -88 -43 -31 -30 -34 -37 -34 -95 0 -54
3 -65 28 -89 15 -15 38 -32 52 -39 17 -8 175 -11 522 -12 514 0 528 -1 528
-41 0 -25 -47 -107 -94 -164 l-45 -55 20 -68 c27 -90 56 -110 149 -101 73 7
76 9 258 197 4 4 23 23 42 42 19 18 49 49 67 67 18 19 45 46 60 61 15 16 52
52 81 82 l52 53 0 67 c0 79 24 49 -297 373 l-202 203 -70 0 c-65 0 -72 -2
-104 -32z"/>
</g>
</svg>
