<svg xmlns="http://www.w3.org/2000/svg" width="49" height="51" viewBox="0 0 49 51">
  <defs>
    <style>
      .cls-1 {
        fill: #3c3c3c;
        fill-rule: evenodd;
      }
    </style>
  </defs>
  <path id="Forma_1" data-name="Forma 1" class="cls-1" d="M583,1173.64a5.334,5.334,0,0,1-5.307,5.36H539.307a5.334,5.334,0,0,1-5.307-5.36v-34.1a5.334,5.334,0,0,1,5.307-5.36h38.386a5.334,5.334,0,0,1,5.307,5.36v34.1Zm-3.063-34.1a2.259,2.259,0,0,0-2.244-2.27H539.307a2.261,2.261,0,0,0-2.245,2.27v34.1a2.261,2.261,0,0,0,2.245,2.27h38.386a2.259,2.259,0,0,0,2.244-2.27v-34.1Zm-5.279,34.05h-4.831a0.775,0.775,0,0,1,0-1.55h4.831c0.758,0,1.294-.13,1.294-1.82a0.848,0.848,0,0,1,1.689,0v0.28a0.681,0.681,0,0,1-.09.13C577.438,1172.6,576.414,1173.59,574.658,1173.59Zm2.121-5.86a0.772,0.772,0,0,1-.765-0.78,0.822,0.822,0,0,1,.222-0.55,0.808,0.808,0,0,1,1.087,0,0.827,0.827,0,0,1,.222.55A0.772,0.772,0,0,1,576.779,1167.73Zm-31.452-11.91h-0.765a0.775,0.775,0,0,1,0-1.55h0.765A0.775,0.775,0,0,1,545.327,1155.82Zm5.36,0h-0.766a0.775,0.775,0,0,1,0-1.55h0.766A0.775,0.775,0,0,1,550.687,1155.82Zm5.359,0H555.28a0.775,0.775,0,0,1,0-1.55h0.766A0.775,0.775,0,0,1,556.046,1155.82Zm4.594,0h-0.766a0.775,0.775,0,0,1,0-1.55h0.766A0.775,0.775,0,0,1,560.64,1155.82Zm5.359,0h-0.765a0.775,0.775,0,0,1,0-1.55H566A0.775,0.775,0,0,1,566,1155.82Zm5.36,0h-0.766a0.775,0.775,0,0,1,0-1.55h0.766A0.775,0.775,0,0,1,571.359,1155.82Zm-26.032,4.63h-0.765a0.77,0.77,0,0,1,0-1.54h0.765A0.77,0.77,0,0,1,545.327,1160.45Zm5.36,0h-0.766a0.77,0.77,0,0,1,0-1.54h0.766A0.77,0.77,0,0,1,550.687,1160.45Zm5.359,0H555.28a0.77,0.77,0,0,1,0-1.54h0.766A0.77,0.77,0,0,1,556.046,1160.45Zm4.594,0h-0.766a0.77,0.77,0,0,1,0-1.54h0.766A0.77,0.77,0,0,1,560.64,1160.45Zm5.359,0h-0.765a0.77,0.77,0,0,1,0-1.54H566A0.77,0.77,0,0,1,566,1160.45Zm5.36,0h-0.766a0.77,0.77,0,0,1,0-1.54h0.766A0.77,0.77,0,0,1,571.359,1160.45Zm-26.032,9.28h-0.765a0.775,0.775,0,0,1,0-1.55h0.765A0.775,0.775,0,0,1,545.327,1169.73Zm5.36,0h-0.766a0.775,0.775,0,0,1,0-1.55h0.766A0.775,0.775,0,0,1,550.687,1169.73Zm5.359,0H555.28a0.775,0.775,0,0,1,0-1.55h0.766A0.775,0.775,0,0,1,556.046,1169.73Zm4.594,0h-0.766a0.775,0.775,0,0,1,0-1.55h0.766A0.775,0.775,0,0,1,560.64,1169.73Zm-15.313-4.64h-0.765a0.775,0.775,0,0,1,0-1.55h0.765A0.775,0.775,0,0,1,545.327,1165.09Zm5.36,0h-0.766a0.775,0.775,0,0,1,0-1.55h0.766A0.775,0.775,0,0,1,550.687,1165.09Zm5.359,0H555.28a0.775,0.775,0,0,1,0-1.55h0.766A0.775,0.775,0,0,1,556.046,1165.09Zm4.594,0h-0.766a0.775,0.775,0,0,1,0-1.55h0.766A0.775,0.775,0,0,1,560.64,1165.09Zm5.359,0h-0.765a0.775,0.775,0,0,1,0-1.55H566A0.775,0.775,0,0,1,566,1165.09Zm5.36,0h-0.766a0.775,0.775,0,0,1,0-1.55h0.766A0.775,0.775,0,0,1,571.359,1165.09Zm-26.64-22.41a1.536,1.536,0,0,1-1.532-1.54v-11.6a1.532,1.532,0,1,1,3.063,0v11.6A1.536,1.536,0,0,1,544.719,1142.68Zm26.8,0a1.536,1.536,0,0,1-1.532-1.54v-11.6a1.532,1.532,0,1,1,3.063,0v11.6A1.536,1.536,0,0,1,571.516,1142.68Zm9.8,6.18H535.374a0.77,0.77,0,0,1,0-1.54h45.938A0.77,0.77,0,0,1,581.312,1148.86Z" transform="translate(-534 -1128)"/>
</svg>
