<?xml version="1.0" standalone="no"?>
<!DOCTYPE svg PUBLIC "-//W3C//DTD SVG 20010904//EN"
 "http://www.w3.org/TR/2001/REC-SVG-20010904/DTD/svg10.dtd">
<svg version="1.0" xmlns="http://www.w3.org/2000/svg"
 width="600.000000pt" height="392.000000pt" viewBox="0 0 600.000000 392.000000"
 preserveAspectRatio="xMidYMid meet">
<metadata>
Created by potrace 1.13, written by Peter Selinger 2001-2015
</metadata>
<g transform="translate(0.000000,392.000000) scale(0.100000,-0.100000)"
fill="#000000" stroke="none">
<path d="M2940 3866 c-36 -26 -49 -43 -63 -86 -30 -93 52 -84 -835 -90 -433
-3 -794 -9 -803 -13 -9 -4 -37 -32 -63 -62 -60 -69 -61 -102 -8 -170 l37 -48
3 -991 c2 -545 0 -1015 -3 -1044 -5 -39 -15 -62 -36 -86 -19 -22 -31 -49 -35
-77 -6 -41 -3 -48 40 -101 26 -30 57 -59 69 -63 12 -4 144 -11 292 -15 149 -4
271 -8 273 -8 10 -7 -1 -102 -13 -112 -8 -6 -24 -37 -35 -68 -12 -32 -30 -71
-40 -88 -11 -17 -28 -59 -39 -93 -11 -34 -31 -79 -44 -99 -14 -20 -30 -62 -36
-91 -7 -30 -22 -69 -35 -86 -13 -16 -35 -68 -49 -115 -41 -140 -41 -133 -2
-195 l36 -55 54 0 c44 0 60 5 87 27 47 40 56 52 72 104 8 26 25 64 39 85 14
22 30 63 36 93 6 29 24 72 40 95 16 22 34 64 41 93 6 28 24 72 40 96 16 25 35
73 44 107 9 34 25 73 36 87 11 14 25 44 30 67 19 74 31 93 75 125 l43 31 317
0 c190 0 324 -4 335 -10 27 -15 34 -58 35 -235 0 -88 5 -168 9 -178 5 -10 33
-29 62 -42 50 -22 55 -23 103 -8 79 23 86 42 83 235 -3 185 6 221 58 232 18 3
165 6 327 6 275 0 296 -1 333 -20 44 -22 65 -49 76 -95 3 -16 19 -52 34 -80
15 -27 33 -72 39 -100 7 -27 25 -70 41 -93 16 -24 34 -68 40 -97 6 -29 24 -73
40 -97 15 -23 36 -72 45 -107 9 -35 27 -78 39 -95 13 -17 29 -53 35 -81 9 -37
24 -62 59 -97 44 -45 49 -48 99 -48 56 0 53 -2 114 72 26 32 30 43 24 70 -4
18 -16 47 -26 64 -10 17 -23 54 -29 82 -7 28 -25 71 -40 94 -16 24 -34 66 -40
95 -6 28 -24 71 -39 95 -16 23 -36 70 -46 102 -9 33 -27 75 -41 95 -13 20 -24
42 -24 49 0 7 -8 29 -19 50 -26 52 -36 118 -19 128 7 5 130 11 273 14 294 7
291 6 356 85 33 40 40 54 35 78 -3 16 -6 38 -6 48 0 10 -15 35 -32 55 l-33 37
0 1037 0 1037 33 37 c31 35 38 62 34 125 -1 24 -59 92 -97 114 -15 9 -230 13
-800 17 -872 6 -827 2 -840 74 -10 52 -40 93 -84 116 -52 26 -57 25 -111 -14z
m1614 -528 c18 -17 25 -34 26 -63 1 -22 2 -455 1 -963 l-1 -922 -32 -20 c-33
-20 -55 -20 -1548 -20 -1493 0 -1515 0 -1547 20 l-33 20 0 960 0 961 25 24 24
25 1530 0 1530 0 25 -22z"/>
<path d="M3536 2979 c-14 -17 -26 -36 -27 -42 0 -7 0 -300 1 -652 l0 -640 26
-22 c22 -20 36 -23 108 -23 136 0 122 -71 131 678 7 676 8 659 -38 710 -18 19
-30 22 -98 22 -74 0 -78 -1 -103 -31z"/>
<path d="M2258 2870 l-25 -19 4 -608 c4 -712 -10 -643 128 -643 67 0 87 4 106
19 l24 19 5 584 c3 320 3 594 1 606 -6 41 -56 62 -142 62 -61 0 -81 -4 -101
-20z"/>
<path d="M1852 2614 c-12 -8 -27 -24 -33 -36 -9 -16 -15 -576 -9 -911 0 -20 9
-33 33 -48 28 -18 44 -20 116 -16 59 4 88 10 100 21 14 15 16 65 19 464 3 500
1 522 -53 533 -60 13 -150 9 -173 -7z"/>
<path d="M3120 2608 c-51 -35 -56 -63 -47 -270 5 -101 6 -289 4 -418 -2 -129
-1 -246 2 -260 11 -43 63 -62 159 -57 61 2 87 8 100 21 15 15 17 57 20 465 3
488 0 519 -48 532 -14 4 -55 7 -91 8 -53 1 -73 -3 -99 -21z"/>
<path d="M2702 2303 c-52 -10 -54 -28 -53 -355 1 -261 3 -304 17 -319 37 -40
241 -32 264 10 13 25 14 588 2 622 -7 17 -22 29 -50 37 -38 12 -132 14 -180 5z"/>
<path d="M3980 2301 c-48 -13 -51 -37 -50 -358 1 -349 -6 -329 107 -339 78 -7
155 12 167 41 11 30 8 592 -3 614 -19 34 -64 51 -133 50 -35 -1 -74 -4 -88 -8z"/>
<path d="M301 3004 c-23 -20 -50 -53 -60 -73 -11 -20 -28 -44 -40 -55 -11 -10
-30 -44 -41 -74 -12 -30 -31 -68 -44 -83 -16 -19 -28 -55 -39 -116 -9 -50 -27
-119 -39 -154 -19 -53 -22 -86 -22 -194 0 -113 3 -140 26 -210 14 -44 31 -112
38 -151 8 -51 22 -88 46 -125 19 -29 34 -59 34 -65 0 -7 15 -33 34 -57 19 -25
42 -59 50 -75 8 -16 38 -47 66 -67 l51 -38 27 25 c15 13 40 32 56 42 26 16 28
21 22 59 -7 39 -25 67 -107 157 -20 22 -40 55 -43 74 -4 18 -20 54 -37 80 -27
40 -34 65 -51 184 -21 145 -19 206 7 382 10 66 21 103 39 129 14 20 34 61 46
92 11 31 30 65 41 75 12 10 28 32 36 49 9 16 31 44 49 61 19 18 34 37 34 44 0
18 -104 120 -122 120 -8 0 -33 -16 -57 -36z"/>
<path d="M5591 3005 c-17 -20 -38 -47 -47 -60 -18 -28 -25 -16 87 -148 20 -23
43 -64 53 -91 9 -28 26 -60 38 -73 21 -22 65 -197 83 -329 6 -45 -16 -199 -50
-360 -2 -11 -16 -38 -31 -60 -15 -21 -32 -55 -39 -75 -8 -20 -39 -68 -69 -106
-31 -37 -61 -85 -67 -105 -12 -36 -11 -37 41 -88 l52 -51 45 27 c25 14 53 40
62 57 9 17 30 46 47 66 17 20 37 53 43 73 7 20 25 52 40 72 20 24 33 59 44
115 9 44 26 102 39 128 21 44 23 64 26 239 l4 192 -30 73 c-16 41 -34 103 -40
138 -6 34 -20 77 -32 95 -11 17 -33 59 -49 94 -17 34 -35 62 -40 62 -5 0 -22
23 -38 52 -30 56 -81 98 -118 98 -14 0 -36 -15 -54 -35z"/>
<path d="M555 2787 c-29 -16 -48 -37 -68 -77 -15 -30 -38 -66 -52 -80 -17 -18
-27 -45 -35 -93 -6 -37 -22 -98 -37 -135 -34 -89 -36 -201 -3 -282 12 -30 28
-89 36 -130 8 -42 23 -86 34 -100 12 -14 31 -47 44 -75 16 -34 39 -60 70 -82
26 -18 49 -33 52 -33 12 0 114 94 114 105 0 11 -25 52 -101 167 -30 45 -41 74
-53 145 -9 48 -16 111 -16 138 0 77 27 214 49 249 11 17 30 49 42 71 12 22 34
52 50 67 35 33 36 54 4 98 -22 29 -71 70 -85 70 -3 0 -23 -10 -45 -23z"/>
<path d="M5354 2785 c-18 -14 -39 -43 -48 -66 l-17 -41 41 -38 c22 -20 40 -44
40 -52 0 -9 7 -22 17 -29 28 -24 51 -90 69 -202 16 -101 16 -113 1 -195 -10
-48 -17 -97 -17 -109 0 -12 -13 -37 -28 -55 -36 -43 -110 -158 -114 -179 -2
-10 19 -38 50 -68 l54 -52 46 29 c34 20 55 44 77 84 17 31 38 67 47 80 10 13
24 56 33 96 8 40 25 91 37 115 17 33 22 65 26 148 4 97 2 110 -23 170 -24 57
-37 103 -51 175 -2 12 -19 40 -38 63 -19 23 -37 54 -41 70 -7 35 -28 54 -74
70 -46 15 -51 14 -87 -14z"/>
<path d="M801 2544 c-52 -43 -74 -84 -87 -158 -18 -97 -17 -166 2 -263 16 -81
18 -84 71 -129 l54 -47 27 25 c15 13 39 32 55 41 23 15 27 24 27 64 0 37 -6
53 -27 75 -50 52 -51 183 -2 238 41 45 37 71 -19 130 -27 28 -53 50 -59 50 -6
0 -25 -12 -42 -26z"/>
<path d="M5135 2538 c-33 -38 -65 -86 -65 -99 0 -6 8 -22 19 -35 24 -31 45
-143 37 -196 -4 -23 -18 -70 -32 -105 l-26 -64 29 -33 c15 -18 36 -43 45 -54
15 -18 21 -20 55 -10 53 14 61 23 79 87 8 31 26 82 40 114 13 32 24 73 24 90
0 27 -24 112 -74 257 -12 34 -35 52 -86 65 -19 4 -31 0 -45 -17z"/>
</g>
</svg>
