<svg xmlns="http://www.w3.org/2000/svg" width="51.97" height="46" viewBox="0 0 51.97 46">
  <defs>
    <style>
      .cls-1 {
        fill: #3c3c3c;
        fill-rule: evenodd;
      }
    </style>
  </defs>
  <path id="Forma_1" data-name="Forma 1" class="cls-1" d="M1284.05,1170.16a3.925,3.925,0,1,1-3.93,3.92A3.914,3.914,0,0,1,1284.05,1170.16Zm15.72,0a3.925,3.925,0,1,1-3.93,3.92A3.922,3.922,0,0,1,1299.77,1170.16Zm10.35-29.66a4.055,4.055,0,0,0-2.55-.83h-34.56l-1.14-4.77a3.809,3.809,0,0,0-3.7-2.91h-9.15l1.77,3.8,5.59-.02a2.683,2.683,0,0,1,2.62,2.14l5.09,24.51a6.2,6.2,0,0,0,6.06,4.94h22.44c3.1,0,3.29-3.42,3.29-3.42h-24.72c-1.28,0-2.77.18-3.72-3.5-0.35-1.37-1.17-5.51-1.17-5.51l30.96-.04a2.782,2.782,0,0,0,2.68-2.47l1.05-9.63A2.31,2.31,0,0,0,1310.12,1140.5Zm-3.65,10.54h-31.03l-1.5-7.01h33.29Z" transform="translate(-1259.03 -1132)"/>
</svg>
