<svg xmlns="http://www.w3.org/2000/svg" width="50" height="78" viewBox="0 0 50 78">
  <defs>
    <style>
      .cls-1 {
        fill: #333945;
        fill-rule: evenodd;
      }
    </style>
  </defs>
  <path id="Forma_1" data-name="Forma 1" class="cls-1" d="M577.456,340.868l-3.544-1.065a2.072,2.072,0,0,0-1.124-1.94l-5.437-3.256a29.343,29.343,0,0,0,2.146-3.826c2.077-.41,4.046-2.357,4.967-5.016,1.211-3.52.244-6.969-2.189-8.092,0.607-1.935,2-7.581-.7-11.855-1.736-2.749-4.772-4.347-9.033-4.757A11.432,11.432,0,0,0,553.818,297a15.989,15.989,0,0,0-8.067,2.475c-8.8,5.186-7.168,14.858-6.24,18.321a4.776,4.776,0,0,0-2.259,3.063,8.6,8.6,0,0,0,.289,4.906c0.91,2.634,2.847,4.57,4.956,5a29.348,29.348,0,0,0,2.149,3.835l-5.444,3.26a2.3,2.3,0,0,0-1.122,1.943l-3.536,1.062A4.992,4.992,0,0,0,531,345.657v4.153a25,25,0,1,0,50,0v-4.153A4.992,4.992,0,0,0,577.456,340.868Zm-6.012-1.021-7.565,10.039-5.193-8.087a14.966,14.966,0,0,0,7.16-5.138Zm-24.4-38.157a13.515,13.515,0,0,1,6.779-2.124,8.845,8.845,0,0,1,7.019,3.453,1.269,1.269,0,0,0,.963.555c3.7,0.259,6.267,1.475,7.625,3.615,1.957,3.089,1.1,7.78.563,9.663-5.541-1.3-11.494-7.178-11.558-7.241a1.227,1.227,0,0,0-1-.363,1.277,1.277,0,0,0-.925.522c-3.226,4.462-11.58,6.684-14.559,7.353C541.124,314.242,539.6,306.073,547.039,301.69Zm-2.512,27.374a1.347,1.347,0,0,0-1.221-.771c-1.065,0-2.6-1.181-3.36-3.371a6.089,6.089,0,0,1-.232-3.407,2.193,2.193,0,0,1,1.187-1.577,1.822,1.822,0,0,1,.313-0.051c0.007,0,.012,0,0.02-0.006,0.027,0,.052,0,0.077-0.006,0.487-.087,11.274-2.047,16.347-7.492,2.107,1.872,7.394,6.064,13.02,7.446,0,0,.343.083,0.423,0.109,1.127,0.4,1.8,2.541.958,4.984-0.759,2.19-2.3,3.371-3.395,3.371a1.284,1.284,0,0,0-1.191.771c-2.217,5.122-6.395,10.595-11.473,10.595S546.743,334.186,544.527,329.064Zm14.131,20.148-0.776.69h-3.825l-0.776-.69,1.353-4.828L556,342.336l1.27,2.048Zm-12.49-12.534a14.933,14.933,0,0,0,7.151,5.123l-5.166,8.14-7.65-9.873Zm9.881,34.825a0.242,0.242,0,0,1-.223-0.149l-2.662-6.335,1.448-9.762h2.875l1.448,9.762-2.662,6.332A0.24,0.24,0,0,1,556.049,371.5Zm22.4-21.693a22.574,22.574,0,0,1-20.563,22.527,2.72,2.72,0,0,0,.141-0.233l2.873-6.834-1.771-11.937h-6.167L551.2,365.27l2.872,6.834a2.041,2.041,0,0,0,.145.238,22.571,22.571,0,0,1-20.666-22.532v-4.153a2.414,2.414,0,0,1,1.727-2.329l3.832-1.151,7.108,9.431a2.4,2.4,0,0,0,1.908.957l0.09,0a2.391,2.391,0,0,0,1.924-1.1l1.015-1.579,2.184,1.945h5.272l2.219-1.973,1.032,1.609a2.394,2.394,0,0,0,1.925,1.1l0.089,0a2.4,2.4,0,0,0,1.908-.956l7.108-9.435,3.842,1.154a2.415,2.415,0,0,1,1.724,2.329v4.153h0Z" transform="translate(-531 -297)"/>
</svg>
