<svg xmlns="http://www.w3.org/2000/svg" width="76" height="76" viewBox="0 0 76 76">
  <defs>
    <style>
      .cls-1 {
        fill: #fff;
        fill-rule: evenodd;
      }
    </style>
  </defs>
  <path id="Forma_1" data-name="Forma 1" class="cls-1" d="M329.182,351.156l18.436,18.435a1.395,1.395,0,1,0,1.973-1.972l-18.436-18.437A32.9,32.9,0,1,0,329.182,351.156Zm-52.391-24.24a30.125,30.125,0,1,1,43.688,26.894V338.831a9.389,9.389,0,0,0-9.379-9.379h-8.369a9.388,9.388,0,0,0-9.378,9.379v14.978A30.154,30.154,0,0,1,276.791,326.916Zm19.352,11.915a6.6,6.6,0,0,1,6.587-6.588h8.37a6.6,6.6,0,0,1,6.588,6.588v16.217a30.11,30.11,0,0,1-21.545,0V338.831h0Zm10.739-10.715a9.645,9.645,0,1,0-9.643-9.643A9.654,9.654,0,0,0,306.882,328.116Zm0-16.5a6.854,6.854,0,1,1-6.853,6.856A6.863,6.863,0,0,1,306.882,311.617Z" transform="translate(-274 -294)"/>
</svg>
