<svg xmlns="http://www.w3.org/2000/svg" width="61" height="54" viewBox="0 0 61 54">
  <defs>
    <style>
      .cls-1 {
        fill: #3c3c3c;
        fill-rule: evenodd;
      }
    </style>
  </defs>
  <path id="Forma_1" data-name="Forma 1" class="cls-1" d="M823.782,890.92l-12.421-12.676a4.106,4.106,0,0,0-5.888,0l-2.919,2.979a4.229,4.229,0,0,0-.97,1.571l-13.658-2.5h0a11.407,11.407,0,0,0-13.375,9.1l-0.63,3.188a6.52,6.52,0,0,0,5,7.674,6.4,6.4,0,0,0,7.52-5.1l0.385-1.95,6.124,0.547,15.994,16.322,2.9,2.958a1.561,1.561,0,0,1,0,2.173,1.487,1.487,0,0,1-2.129,0l-7.765-7.924a1.363,1.363,0,0,0-1.958,0,1.433,1.433,0,0,0,0,2l7.764,7.924a1.559,1.559,0,0,1,0,2.173,1.486,1.486,0,0,1-2.129,0l-7.764-7.924a1.366,1.366,0,0,0-1.959,0,1.434,1.434,0,0,0,0,2l7.765,7.924a1.56,1.56,0,0,1,0,2.172,1.484,1.484,0,0,1-2.129,0l-7.765-7.924a1.365,1.365,0,0,0-1.958,0,1.434,1.434,0,0,0,0,2l7.764,7.924a1.561,1.561,0,0,1,0,2.173,1.487,1.487,0,0,1-2.129,0l-27.473-28.037-3.628-3.7a1.366,1.366,0,0,0-1.959,0,1.433,1.433,0,0,0,0,2l3.628,3.7,3.948,4.029-2.176,2.221a3.908,3.908,0,0,0,0,5.446l0.71,0.725a3.718,3.718,0,0,0,2.291,1.108,3.855,3.855,0,0,0,1.087,2.338l0.71,0.725a3.723,3.723,0,0,0,2.29,1.106,3.86,3.86,0,0,0,1.087,2.341l0.711,0.725a3.715,3.715,0,0,0,2.291,1.108,3.85,3.85,0,0,0,1.086,2.338l0.71,0.725a3.725,3.725,0,0,0,5.337,0l2.176-2.221,5.216,5.322a4.212,4.212,0,0,0,6.046,0,4.368,4.368,0,0,0,1.243-2.9,4.207,4.207,0,0,0,2.845-1.269,4.387,4.387,0,0,0,1.242-2.9,4.218,4.218,0,0,0,2.845-1.267,4.385,4.385,0,0,0,1.242-2.9,4.209,4.209,0,0,0,2.846-1.267,4.431,4.431,0,0,0,0-6.17l-1.919-1.958,7.022-7.167,4.883-4.983A4.317,4.317,0,0,0,823.782,890.92Zm-52.039,20.462a1.04,1.04,0,0,1,0-1.448l2.042-2.083,2.129,2.173-2.041,2.083a0.991,0.991,0,0,1-1.419,0Zm4.088,4.172a1.04,1.04,0,0,1,0-1.448l2.041-2.083L780,914.2l-2.04,2.082a0.989,0.989,0,0,1-1.419,0Zm4.088,4.171a1.038,1.038,0,0,1,0-1.448l2.041-2.082,2.129,2.172-2.041,2.083a0.991,0.991,0,0,1-1.419,0Zm6.217,4.9a0.99,0.99,0,0,1-1.419,0l-0.71-.725a1.037,1.037,0,0,1,0-1.447l2.04-2.083,2.13,2.172Zm23.782-17.542-15.372-15.686a1.373,1.373,0,0,0-.858-0.409l-7.861-.7c-0.041,0-.081,0-0.121,0a1.393,1.393,0,0,0-1.357,1.134l-0.63,3.189a3.59,3.59,0,0,1-6.553,1.312,3.725,3.725,0,0,1-.532-2.77l0.63-3.189a8.627,8.627,0,0,1,10.145-6.879l0.029,0.006L800.9,885.54l1.657,1.691,13.407,13.681Zm11.9-12.149-3.9,3.984-13.406-13.682a1.44,1.44,0,0,1,0-2.011l2.919-2.979a1.374,1.374,0,0,1,1.97,0l12.421,12.676A1.444,1.444,0,0,1,821.823,894.93Zm-3.352-1.858a1.413,1.413,0,1,1-1.385,1.413A1.4,1.4,0,0,1,818.471,893.072Z" transform="translate(-764 -877)"/>
</svg>
